<svg id="Layer_1" data-name="Layer 1" xmlns="http://www.w3.org/2000/svg" viewBox="0 0 180 40"><defs><style>.cls-1,.cls-2{fill:#0079F6;}.cls-2{fill-rule:evenodd;}</style></defs><path class="cls-1" d="M176.86,7.22h-2V5.16h2Zm-3.5,0h-2V5.16h2ZM176.92,14c0,2.24-1,3.35-3.1,3.35h-2.18V15.21h1.74c.69,0,1.11-.2,1.31-.61a3.82,3.82,0,0,0,.15-1.33V8.92h2.08Zm-4.84,3.35h-8.54V15.21h1.92a1.25,1.25,0,0,0,1.24-.63,3.22,3.22,0,0,0,.22-1.4V8.92H169v4.14a3.5,3.5,0,0,1-.45,2.15h3.55ZM169,7.2h-2V5.14h2Zm-3.52,0h-2V5.14h2Zm-11.27,0h-2V5.16h2Zm3.5,0h-2V5.16h2ZM156,4.31h-2V2.24h2Zm8,13H149.91a5.5,5.5,0,0,1-.87,1.19,5.32,5.32,0,0,1-4.12,1.88,5.45,5.45,0,0,1-4.11-1.81,6.27,6.27,0,0,1-1.76-4.52V8.92h2.09v4.9a5.27,5.27,0,0,0,.93,3.11,3.46,3.46,0,0,0,5.68,0,5.26,5.26,0,0,0,.91-3.11V8.92h2.09v5.14a7.23,7.23,0,0,1-.1,1.15h1.69c1,0,1.57-.68,1.57-2.05V8.92H156v4a3.84,3.84,0,0,1-.42,2.26h2c1.06,0,1.58-.68,1.58-2V8.92h2.09v4a5.32,5.32,0,0,1-.46,2.29H164Z"/><path class="cls-1" d="M132.61,4.42h-3.2V3.57h.74a2.9,2.9,0,0,1-.16-.65,1.44,1.44,0,0,1,1.44-1.5,1.24,1.24,0,0,1,1.16.82l-.66.35a.48.48,0,0,0-.52-.41.67.67,0,0,0-.63.71.74.74,0,0,0,.33.68h1.5Zm-.51,12.9H130V5.37h2.06ZM126,13.2c0-1.45-.78-2.41-2-2.41s-1.82,1.05-1.82,2.31a2.11,2.11,0,0,0,1.91,2.35A2,2,0,0,0,126,13.2Zm2.12,3.86c0,2.2-1.33,3.32-4,3.32V18.73c1.29,0,1.94-.91,2-2.35a2.05,2.05,0,0,1-2,.94,3.91,3.91,0,0,1-4-4.22,4,4,0,1,1,8,.06Zm-11.86-4a2.2,2.2,0,0,0-2.07-2.44c-1.2,0-2,.93-2,2.37a2.2,2.2,0,0,0,2.07,2.43C115.55,15.42,116.27,14.4,116.27,13.06Zm2.13,0a4,4,0,0,1-4.14,4.26h-6.57c-3.8,0-5.69-1.81-5.69-5.24V9.29h2.06v2.79c0,2.22,1.09,3.13,3.59,3.13h2.94v0a5.4,5.4,0,0,1-.52-2.22,4.07,4.07,0,0,1,4.19-4.28A4.11,4.11,0,0,1,118.4,13.06Zm-3.11-5.84h-2V5.16h2Z"/><path class="cls-1" d="M90.83,13.29a1.72,1.72,0,1,0-3.41,0,1.72,1.72,0,1,0,3.41,0m5.79,4H83.22V15.21h2.72a5.31,5.31,0,0,1-.48-1.92,3.67,3.67,0,0,1,7.33,0,5.31,5.31,0,0,1-.48,1.92h2.44a4.1,4.1,0,0,0,0-.5c0-3.13-1.91-5.92-4.59-6.47l.24-2c4,.8,6.38,4.24,6.38,8.87A12.72,12.72,0,0,1,96.62,17.32ZM77.13,21.38h-2V19.3h2Zm3.5,0h-2V19.3h2Zm3.09-4.06H75.19V15.21h2a1.28,1.28,0,0,0,1.26-.63,3.22,3.22,0,0,0,.22-1.4V8.92h2v4.14a3.35,3.35,0,0,1-.46,2.15h3.48Zm-8,0H67.25V15.21h1.92a1.24,1.24,0,0,0,1.24-.63,3.19,3.19,0,0,0,.23-1.4V5.39h2v7.67a3.59,3.59,0,0,1-.44,2.15h3.48ZM56.22,8.9h-2V6.85h2Zm3.52,0h-2V6.85h2ZM58,6H56V3.92h2Zm9.79,11.32H55.15c-3.93,0-5.89-1.74-5.89-5.24V8.92h2.06v3.16a2.86,2.86,0,0,0,1,2.54,4.47,4.47,0,0,0,2.54.59H61.2a1.23,1.23,0,0,0,1.24-.63,3.22,3.22,0,0,0,.22-1.4V8.92h2.07v4.14a3.35,3.35,0,0,1-.46,2.15h3.54Z"/><path class="cls-2" d="M140.4,38v.62h-5.75V38c1.53-.21,1.68-.31,1.68-1.86v-3.3h-5.25v3.3c0,1.55.07,1.65,1.53,1.86v.62h-5.54V38c1.32-.21,1.53-.31,1.53-1.86v-6.9c0-1.55-.21-1.75-1.6-1.86v-.61h5.54v.61c-1.39.11-1.46.31-1.46,1.86v2.57h5.25V29.22c0-1.55-.15-1.75-1.61-1.86v-.61h5.61v.61c-1.45.11-1.53.31-1.53,1.86v6.9c0,1.55.15,1.65,1.6,1.86m7.22-4c-.37,0-2.55.21-4.37.21.07,1.95,1.16,3,2.47,3a3.53,3.53,0,0,0,2.12-.82l.29.41a4,4,0,0,1-3.35,2.06A3.62,3.62,0,0,1,141,34.89a4.26,4.26,0,0,1,1.31-3.2,4.37,4.37,0,0,1,2.84-1.34h.07a3,3,0,0,1,3,2.89A.64.64,0,0,1,147.62,34Zm-2.84-2.89h0c-.73,0-1.32.83-1.46,2.27a15.84,15.84,0,0,0,2.18-.1c.3,0,.44,0,.44-.31C145.94,32,145.5,31.07,144.78,31.07ZM155,38.8a1.88,1.88,0,0,1-1.16-.31,3.08,3.08,0,0,1-.44-.72,12,12,0,0,1-2,1,2.41,2.41,0,0,1-2.47-2.27c0-1,.43-1.44,1.38-1.75a18.33,18.33,0,0,0,3-1.23V33c0-1.13-.44-1.75-1.17-1.75a.7.7,0,0,0-.58.31,3,3,0,0,0-.58,1.23c-.08.52-.37.62-.8.62s-1.1-.41-1.1-.92c0-.31.22-.52.66-.83a8.29,8.29,0,0,1,3.06-1.34,2.52,2.52,0,0,1,1.75.52,2.66,2.66,0,0,1,1,2.47v2.89c0,.92.29,1.13.58,1.13a1.46,1.46,0,0,0,.65-.21l.15.62Zm-1.67-4.53c-.37.2-.66.31-1,.51-.58.31-.88.62-.88,1.24,0,1,.66,1.44,1.1,1.44a1.7,1.7,0,0,0,.8-.31ZM157,38.6V38c1.1-.21,1.17-.21,1.17-1.45V28.29c0-1.13-.07-1.23-1.09-1.34v-.51c1.09-.11,2.4-.42,3.49-.62V36.53c0,1.24.08,1.34,1.24,1.45v.62Zm9.62-1.14a3.85,3.85,0,0,0,1-.2l.14.61-1.53.73a1.14,1.14,0,0,1-.65.2c-1.46,0-2.33-.62-2.33-2.27v-5H162l-.07-.21.51-.72h.73V29.22l2.11-1.44.29.1v2.68h1.75a.66.66,0,0,1-.08.93h-1.67v4.43C165.61,37.36,166.26,37.46,166.63,37.46Zm6.48,1.14V38c.95-.11,1-.21,1-1.24V33.55c0-1.34-.65-1.86-1.38-1.86a1.93,1.93,0,0,0-1.39.52v4.53c0,1,.08,1.13.88,1.24v.62h-4.37V38c1-.11,1.16-.11,1.16-1.34V28.19c0-1.13-.07-1.13-1-1.24v-.51c1-.11,2.26-.42,3.35-.62v5.67a3.94,3.94,0,0,1,2.48-1.14c1.6,0,2.62,1,2.62,3.09v3.2c0,1.23.08,1.23,1,1.34v.62Z"/><path class="cls-2" d="M106.92,38.9a6.15,6.15,0,0,1-6.48-6.18,6.3,6.3,0,0,1,6.7-6.28h.07a6,6,0,0,1,6.27,6.08c0,4-2.92,6.38-6.56,6.38m-.07-11.64h-.07c-1.9,0-3.5,1.86-3.5,5.05s1.53,5.77,4,5.77c1.82,0,3.42-1.65,3.42-5C110.71,29.43,109,27.26,106.85,27.26Zm14.57-.1a2.11,2.11,0,0,1-.51.62q-.43.3-.66,0a2.58,2.58,0,0,0-1.53-.83.6.6,0,0,0-.65.41,11.33,11.33,0,0,0,0,2.48v.72h2.18c.07.2,0,.82-.29.93h-1.89v5.15c0,1.13.14,1.23,1.6,1.34v.62h-5.1V38c1.09-.11,1.17-.21,1.17-1.34V31.49H114.5l-.08-.21.59-.72h.73v-.41a2.54,2.54,0,0,1,.29-1.24,4.6,4.6,0,0,1,1.53-2.16,4.29,4.29,0,0,1,2.18-.93,2,2,0,0,1,1.53.51A.65.65,0,0,1,121.42,27.16Z"/><path class="cls-2" d="M59,29.94a3.89,3.89,0,0,0-.88-2c-.29-.31-.72-.41-2-.41h-.8v8.55c0,1.55.21,1.65,1.82,1.86v.62h-6V38c1.53-.21,1.75-.31,1.75-1.86V27.57h-.58c-1.68,0-2,.21-2.26.52a3.37,3.37,0,0,0-.8,1.85h-.66c.07-1.34.15-2.68.15-3.61h.51c.29.42.51.42,1,.42h7.64a1.32,1.32,0,0,0,1.1-.42h.43c0,.73.15,2.37.22,3.51ZM62.9,38.8a4.05,4.05,0,0,1-4.37-4A4.37,4.37,0,0,1,63,30.35a4.11,4.11,0,0,1,4.23,4.12A4.16,4.16,0,0,1,62.9,38.8Zm-.22-7.73h0c-.73,0-1.53.93-1.53,3,0,2.27.8,4,2,4,.65,0,1.45-.41,1.45-3.09S63.92,31.07,62.68,31.07Zm13.11,7.42L74,38.8l-.14-.1V37.56a11.21,11.21,0,0,1-1,.73,3,3,0,0,1-1.6.51,2.27,2.27,0,0,1-2.41-2.57V32.52c0-.83-.14-.93-.65-1.14l-.44-.1v-.52c.44,0,1-.1,1.6-.1s1.32-.1,1.9-.2c-.07.72-.07,1.64-.07,2.67v2.68c0,1.14.65,1.65,1.23,1.65A2.38,2.38,0,0,0,73.9,37V32.52c0-.83-.15-1-.59-1.14l-.65-.1v-.52c.58,0,1.24-.1,1.89-.1s1.24-.1,1.68-.2v5.87c0,.93.14,1.13.8,1.23h.44v.62A12.83,12.83,0,0,0,75.79,38.49Zm8.45-6a1.1,1.1,0,0,1-.36-.21,2.86,2.86,0,0,0-1.9-.93c-.73,0-1.6.52-1.6,2.58A3,3,0,0,0,83,37.15a2.83,2.83,0,0,0,2-.72l.36.41a4.5,4.5,0,0,1-3.2,2A3.86,3.86,0,0,1,78.05,35a4.4,4.4,0,0,1,1.89-3.5,5.45,5.45,0,0,1,3.21-1.14,3.44,3.44,0,0,1,1.6.41.9.9,0,0,1,.29.73C85,32,84.61,32.52,84.24,32.52Zm6.34,6.08V38c1-.11,1-.21,1-1.24V33.55c0-1.34-.66-1.86-1.39-1.86a1.92,1.92,0,0,0-1.38.52v4.53c0,1,.07,1.13.88,1.24v.62H85.33V38c1-.11,1.17-.11,1.17-1.34V28.19c0-1.13-.07-1.13-1-1.24v-.51c1-.11,2.26-.42,3.35-.62v5.67a3.91,3.91,0,0,1,2.48-1.14c1.6,0,2.62,1,2.62,3.09v3.2c0,1.23.07,1.23,1,1.34v.62Z"/><path class="cls-2" d="M22.61,14.71a21.07,21.07,0,0,0,5.69-3.89c2.05-2.13,2.8-3.85.57-3.51,1.22-.92,2.8-1.69,3.23-.58s-.05,3.21-1.05,4.73a10.05,10.05,0,0,1-4.45,3.82c-1.6.54-3.44.54-4-.57"/><path class="cls-2" d="M18.07,15v3.52s-4.76,1.22-4.28,5.61c-1.12-1.15-3.51-3.48,1.44-7.54A19.46,19.46,0,0,1,18.07,15"/><path class="cls-2" d="M14.94,31.38A3.65,3.65,0,0,1,13.12,29a5.28,5.28,0,0,1-.48-1.42c.27-.41.48.1.48.1a10.28,10.28,0,0,1,.67,1.89c.12.54.31.61.38.47a.89.89,0,0,0,0-.37s-.07-.44-.19-1.15.41-.3.48-.07,0,.34.29,1.32.38,1.32.64,1.32.19-.27,0-1.11.46-.17.48,0,.57,2.16.57,2.16a9.49,9.49,0,0,1-1.5-.74m7,4.05h1.24a15.25,15.25,0,0,0,6.71-1.59c4.86-2.53,3.71-5.51,3.71-5.51A14.1,14.1,0,0,1,21.2,33.27a3.42,3.42,0,0,0-2-2.67C17.64,29.69,17,29.38,17,29.38s-.77-.17-.29.47a11.41,11.41,0,0,0,1.7,1.53,1.36,1.36,0,0,1,.48,1.31c-.05.65-1.27.48-2,.21s-2.75-1.08-3.61-2.3a12,12,0,0,1-1.41-3.21s-.76-1.12-.76-.31A8.67,8.67,0,0,0,12,29.85a9.23,9.23,0,0,0,3.87,4.2A15.15,15.15,0,0,0,22,35.43Z"/><path class="cls-2" d="M31.91,36.11c-.05,0-.07,0-.1.07s.05-.07.07-.07h0m.36-31.95a17.71,17.71,0,0,0-8.42-2.09,18,18,0,1,0,8,34.11A19.64,19.64,0,1,1,20.67.34a19.48,19.48,0,0,1,11.6,3.82Z"/><path class="cls-2" d="M10.28,11A14.13,14.13,0,0,1,21.11,6a15.53,15.53,0,0,1,6.23,1.32A15.32,15.32,0,0,1,30.5,5.41a16.25,16.25,0,0,0-6.89-1.55A16.08,16.08,0,0,0,10.28,11h0m5,22.72a15.66,15.66,0,0,0,8.34,2.4A16.12,16.12,0,0,0,33.44,7.24a9,9,0,0,1-1.08,3.58,13.24,13.24,0,0,1,3.54,9.23C35.71,29.42,29.14,34.79,21,34.79a14.3,14.3,0,0,1-5.74-1.12S15.27,33.71,15.27,33.71Z"/><path class="cls-2" d="M21.2,14.61a15.16,15.16,0,0,1,2.27-2.1c1.46-1.11,3.4-2.64,4-2.94s1.48-.51,1.32.88c.71-.64,2.6-2.84,1.62-3.35-.81-.4-1.77.37-2.51.92-1.1.77-3.89,3.21-3.85,3.17s.87-2.5-.09-3.72-3.44-1.38-4.09,1.36a5.5,5.5,0,0,0,0,3s-.09-3.35,1.53-4.29,2.44,1,2.27,2a7.27,7.27,0,0,1-.57,1.83C22.4,12.71,22,13,21.2,14.61"/><path class="cls-2" d="M24.33,16.23a7.59,7.59,0,0,0,2.08-.17c.5-.1.67,0,.48.64A15.67,15.67,0,0,1,25,20.42c-.29.58-.05.44-.1.78a4.78,4.78,0,0,1,0,1.89,7.25,7.25,0,0,0-.45,1.9c-.05.71-.1,1.35-.1,1.35a7.33,7.33,0,0,1,.36-3.45c.26-.81-.1-1.39-.19-2.1a1.42,1.42,0,0,1,.48-1c.19-.21.24-3.15-.65-3.52"/><path class="cls-2" d="M19.19,28.81s-5.49-4.7-4.25-8.66a5.11,5.11,0,0,0-1.34,3.69s1.08,1.65,5.59,5"/><path class="cls-2" d="M21,12.82s-2.29,1.38-.86,6.93,1.27,7.06,0,9.33a17.74,17.74,0,0,0-.48-8.45c-1.19-3.32-.5-6.23,1.34-7.81"/><path class="cls-2" d="M21.42,28.5c-.1.1-.39-.07-.65-.34s-.38-.57-.29-.67.39.07.65.37.38.57.29.64m.76-1.32c-.07.17-.48.11-.93-.1s-.77-.47-.69-.64.47-.14.93.07S22.25,27,22.18,27.18Zm.24-1.42c0,.17-.48.24-1,.14s-.94-.34-.89-.51.48-.27,1-.17S22.47,25.56,22.42,25.76Zm-.93-1.08c-.5,0-.89-.23-.86-.44s.43-.34.93-.27.88.24.86.44S22,24.75,21.49,24.68Zm0-1.11c-.48,0-.88-.14-.88-.34s.4-.34.88-.34.91.17.91.34S22,23.57,21.51,23.57Zm-.05-1.36c-.59.07-1.1,0-1.12-.2s.45-.37,1.05-.44,1.1,0,1.13.2S22.06,22.18,21.46,22.21Zm-.4-1.11c-.5.07-1,0-1-.17s.36-.41.86-.51.95,0,1,.17S21.58,21,21.06,21.1Zm-.5-1.46c-.48.11-.91,0-.94-.16s.34-.41.82-.48.93,0,.95.17S21.06,19.58,20.56,19.64Zm-.48-1.42c-.5.07-1,0-1-.16s.38-.34.91-.41,1,0,1,.2S20.6,18.16,20.08,18.22Zm-.36-1.52c-.46,0-.81-.1-.81-.27s.35-.3.81-.3.81.13.81.3S20.17,16.7,19.72,16.7Zm-.1-1.21c-.38,0-.71-.14-.71-.31s.33-.27.71-.27.72.14.72.27S20,15.49,19.62,15.49Zm.24-1.15c-.26,0-.48-.1-.48-.24s.22-.24.48-.24.48.11.48.24S20.13,14.34,19.86,14.34Zm.48-.78c-.21,0-.38-.07-.38-.17s.17-.2.38-.2.38.1.38.2S20.56,13.56,20.34,13.56Z"/></svg>